<?xml version="1.0"?>
<!-- Generated by SVGo -->
<svg width="107.251mm" height="83.438mm"
     viewBox="0.000 0.000 107.251 83.438"
     xmlns="http://www.w3.org/2000/svg" 
     xmlns:xlink="http://www.w3.org/1999/xlink">
<polygon points="102.251,78.438 5.000,78.438 5.000,5.000 102.251,5.000" style="fill:none;stroke-width:0.050000mm;stroke:black"/>
<polygon points="8.525,60.912 8.525,74.912 22.525,74.912 22.525,60.912" style="fill:none;stroke-width:0.050000mm;stroke:black"/>
<polygon points="84.725,60.912 84.725,74.912 98.725,74.912 98.725,60.912" style="fill:none;stroke-width:0.050000mm;stroke:black"/>
<polygon points="65.675,56.150 65.675,70.150 79.675,70.150 79.675,56.150" style="fill:none;stroke-width:0.050000mm;stroke:black"/>
<polygon points="27.575,51.387 27.575,65.387 41.575,65.387 41.575,51.387" style="fill:none;stroke-width:0.050000mm;stroke:black"/>
<polygon points="46.625,46.625 46.625,60.625 60.625,60.625 60.625,46.625" style="fill:none;stroke-width:0.050000mm;stroke:black"/>
<polygon points="8.525,41.862 8.525,55.862 22.525,55.862 22.525,41.862" style="fill:none;stroke-width:0.050000mm;stroke:black"/>
<polygon points="84.725,41.862 84.725,55.862 98.725,55.862 98.725,41.862" style="fill:none;stroke-width:0.050000mm;stroke:black"/>
<polygon points="65.675,37.100 65.675,51.100 79.675,51.100 79.675,37.100" style="fill:none;stroke-width:0.050000mm;stroke:black"/>
<polygon points="27.575,32.337 27.575,46.337 41.575,46.337 41.575,32.337" style="fill:none;stroke-width:0.050000mm;stroke:black"/>
<polygon points="46.625,27.575 46.625,41.575 60.625,41.575 60.625,27.575" style="fill:none;stroke-width:0.050000mm;stroke:black"/>
<polygon points="8.525,22.812 8.525,36.812 22.525,36.812 22.525,22.812" style="fill:none;stroke-width:0.050000mm;stroke:black"/>
<polygon points="84.725,22.812 84.725,36.812 98.725,36.812 98.725,22.812" style="fill:none;stroke-width:0.050000mm;stroke:black"/>
<polygon points="65.675,18.050 65.675,32.049 79.675,32.049 79.675,18.050" style="fill:none;stroke-width:0.050000mm;stroke:black"/>
<polygon points="27.575,13.287 27.575,27.287 41.575,27.287 41.575,13.287" style="fill:none;stroke-width:0.050000mm;stroke:black"/>
<polygon points="46.625,8.525 46.625,22.525 60.625,22.525 60.625,8.525" style="fill:none;stroke-width:0.050000mm;stroke:black"/>
</svg>
