<?xml version="1.0"?>
<!DOCTYPE svg PUBLIC "-//W3C//DTD SVG 1.1//EN" "http://www.w3.org/Graphics/SVG/1.1/DTD/svg11.dtd">
<svg width="99.19601898mm" height="75.38302398000002mm" viewBox="0 0 99.19601898 75.38302398000002" xmlns="http://www.w3.org/2000/svg" version="1.1">
<g id="Pad" transform="translate(-4.027490,-4.027490) scale(1,-1)">
<path id="Pad_f0000"  d="M 5.0 -78.438004 L 5.0 -5.0 L 5.0 -5.0 L 5.0 -78.438004 L 5.0 -78.438004 Z " stroke="#191919" stroke-width="0.7 px" style="stroke-width:0.7;stroke-miterlimit:4;stroke-dasharray:none;stroke-linecap:square;fill:#727980;fill-opacity:1.0;fill-rule: evenodd"/>
<path id="Pad_f0001"  d="M 102.250999 -78.438004 L 5.0 -78.438004 L 5.0 -78.438004 L 102.250999 -78.438004 L 102.250999 -78.438004 Z " stroke="#191919" stroke-width="0.7 px" style="stroke-width:0.7;stroke-miterlimit:4;stroke-dasharray:none;stroke-linecap:square;fill:#727980;fill-opacity:1.0;fill-rule: evenodd"/>
<path id="Pad_f0002"  d="M 102.250999 -5.0 L 102.250999 -78.438004 L 102.250999 -78.438004 L 102.250999 -5.0 L 102.250999 -5.0 Z " stroke="#191919" stroke-width="0.7 px" style="stroke-width:0.7;stroke-miterlimit:4;stroke-dasharray:none;stroke-linecap:square;fill:#727980;fill-opacity:1.0;fill-rule: evenodd"/>
<path id="Pad_f0003"  d="M 5.0 -5.0 L 102.250999 -5.0 L 102.250999 -5.0 L 5.0 -5.0 L 5.0 -5.0 Z " stroke="#191919" stroke-width="0.7 px" style="stroke-width:0.7;stroke-miterlimit:4;stroke-dasharray:none;stroke-linecap:square;fill:#727980;fill-opacity:1.0;fill-rule: evenodd"/>
<path id="Pad_f0004"  d="M 46.624992 -46.624889 L 46.624992 -46.624889 L 46.624992 -60.625 L 46.624992 -60.625 L 46.624992 -46.624889 Z " stroke="#191919" stroke-width="0.7 px" style="stroke-width:0.7;stroke-miterlimit:4;stroke-dasharray:none;stroke-linecap:square;fill:#727980;fill-opacity:1.0;fill-rule: evenodd"/>
<path id="Pad_f0005"  d="M 46.624992 -60.625 L 46.624992 -60.625 L 60.625 -60.625 L 60.625 -60.625 L 46.624992 -60.625 Z " stroke="#191919" stroke-width="0.7 px" style="stroke-width:0.7;stroke-miterlimit:4;stroke-dasharray:none;stroke-linecap:square;fill:#727980;fill-opacity:1.0;fill-rule: evenodd"/>
<path id="Pad_f0006"  d="M 60.625 -60.625 L 60.625 -60.625 L 60.625 -46.624889 L 60.625 -46.624889 L 60.625 -60.625 Z " stroke="#191919" stroke-width="0.7 px" style="stroke-width:0.7;stroke-miterlimit:4;stroke-dasharray:none;stroke-linecap:square;fill:#727980;fill-opacity:1.0;fill-rule: evenodd"/>
<path id="Pad_f0007"  d="M 60.625 -46.624889 L 60.625 -46.624889 L 46.624992 -46.624889 L 46.624992 -46.624889 L 60.625 -46.624889 Z " stroke="#191919" stroke-width="0.7 px" style="stroke-width:0.7;stroke-miterlimit:4;stroke-dasharray:none;stroke-linecap:square;fill:#727980;fill-opacity:1.0;fill-rule: evenodd"/>
<path id="Pad_f0008"  d="M 84.724991 -60.911995 L 84.724991 -60.911995 L 84.724991 -74.912003 L 84.724991 -74.912003 L 84.724991 -60.911995 Z " stroke="#191919" stroke-width="0.7 px" style="stroke-width:0.7;stroke-miterlimit:4;stroke-dasharray:none;stroke-linecap:square;fill:#727980;fill-opacity:1.0;fill-rule: evenodd"/>
<path id="Pad_f0009"  d="M 84.724991 -74.912003 L 84.724991 -74.912003 L 98.725006 -74.912003 L 98.725006 -74.912003 L 84.724991 -74.912003 Z " stroke="#191919" stroke-width="0.7 px" style="stroke-width:0.7;stroke-miterlimit:4;stroke-dasharray:none;stroke-linecap:square;fill:#727980;fill-opacity:1.0;fill-rule: evenodd"/>
<path id="Pad_f0010"  d="M 98.725006 -74.912003 L 98.725006 -74.912003 L 98.725006 -60.911995 L 98.725006 -60.911995 L 98.725006 -74.912003 Z " stroke="#191919" stroke-width="0.7 px" style="stroke-width:0.7;stroke-miterlimit:4;stroke-dasharray:none;stroke-linecap:square;fill:#727980;fill-opacity:1.0;fill-rule: evenodd"/>
<path id="Pad_f0011"  d="M 98.725006 -60.911995 L 98.725006 -60.911995 L 84.724991 -60.911995 L 84.724991 -60.911995 L 98.725006 -60.911995 Z " stroke="#191919" stroke-width="0.7 px" style="stroke-width:0.7;stroke-miterlimit:4;stroke-dasharray:none;stroke-linecap:square;fill:#727980;fill-opacity:1.0;fill-rule: evenodd"/>
<path id="Pad_f0012"  d="M 65.674995 -37.099998 L 65.674995 -37.099998 L 65.674995 -51.099998 L 65.674995 -51.099998 L 65.674995 -37.099998 Z " stroke="#191919" stroke-width="0.7 px" style="stroke-width:0.7;stroke-miterlimit:4;stroke-dasharray:none;stroke-linecap:square;fill:#727980;fill-opacity:1.0;fill-rule: evenodd"/>
<path id="Pad_f0013"  d="M 65.674995 -51.099998 L 65.674995 -51.099998 L 79.675003 -51.099998 L 79.675003 -51.099998 L 65.674995 -51.099998 Z " stroke="#191919" stroke-width="0.7 px" style="stroke-width:0.7;stroke-miterlimit:4;stroke-dasharray:none;stroke-linecap:square;fill:#727980;fill-opacity:1.0;fill-rule: evenodd"/>
<path id="Pad_f0014"  d="M 79.675003 -51.099998 L 79.675003 -51.099998 L 79.675003 -37.099998 L 79.675003 -37.099998 L 79.675003 -51.099998 Z " stroke="#191919" stroke-width="0.7 px" style="stroke-width:0.7;stroke-miterlimit:4;stroke-dasharray:none;stroke-linecap:square;fill:#727980;fill-opacity:1.0;fill-rule: evenodd"/>
<path id="Pad_f0015"  d="M 79.675003 -37.099998 L 79.675003 -37.099998 L 65.674995 -37.099998 L 65.674995 -37.099998 L 79.675003 -37.099998 Z " stroke="#191919" stroke-width="0.7 px" style="stroke-width:0.7;stroke-miterlimit:4;stroke-dasharray:none;stroke-linecap:square;fill:#727980;fill-opacity:1.0;fill-rule: evenodd"/>
<path id="Pad_f0016"  d="M 46.625 -8.525 L 46.625 -8.525 L 46.625 -22.525 L 46.625 -22.525 L 46.625 -8.525 Z " stroke="#191919" stroke-width="0.7 px" style="stroke-width:0.7;stroke-miterlimit:4;stroke-dasharray:none;stroke-linecap:square;fill:#727980;fill-opacity:1.0;fill-rule: evenodd"/>
<path id="Pad_f0017"  d="M 46.625 -22.525 L 46.625 -22.525 L 60.625004 -22.525 L 60.625004 -22.525 L 46.625 -22.525 Z " stroke="#191919" stroke-width="0.7 px" style="stroke-width:0.7;stroke-miterlimit:4;stroke-dasharray:none;stroke-linecap:square;fill:#727980;fill-opacity:1.0;fill-rule: evenodd"/>
<path id="Pad_f0018"  d="M 60.625004 -22.525 L 60.625004 -22.525 L 60.625004 -8.525 L 60.625004 -8.525 L 60.625004 -22.525 Z " stroke="#191919" stroke-width="0.7 px" style="stroke-width:0.7;stroke-miterlimit:4;stroke-dasharray:none;stroke-linecap:square;fill:#727980;fill-opacity:1.0;fill-rule: evenodd"/>
<path id="Pad_f0019"  d="M 60.625004 -8.525 L 60.625004 -8.525 L 46.625 -8.525 L 46.625 -8.525 L 60.625004 -8.525 Z " stroke="#191919" stroke-width="0.7 px" style="stroke-width:0.7;stroke-miterlimit:4;stroke-dasharray:none;stroke-linecap:square;fill:#727980;fill-opacity:1.0;fill-rule: evenodd"/>
<path id="Pad_f0020"  d="M 8.525 -60.911999 L 8.525 -60.911999 L 8.525 -74.912003 L 8.525 -74.912003 L 8.525 -60.911999 Z " stroke="#191919" stroke-width="0.7 px" style="stroke-width:0.7;stroke-miterlimit:4;stroke-dasharray:none;stroke-linecap:square;fill:#727980;fill-opacity:1.0;fill-rule: evenodd"/>
<path id="Pad_f0021"  d="M 8.525 -74.912003 L 8.525 -74.912003 L 22.525 -74.912003 L 22.525 -74.912003 L 8.525 -74.912003 Z " stroke="#191919" stroke-width="0.7 px" style="stroke-width:0.7;stroke-miterlimit:4;stroke-dasharray:none;stroke-linecap:square;fill:#727980;fill-opacity:1.0;fill-rule: evenodd"/>
<path id="Pad_f0022"  d="M 22.525 -74.912003 L 22.525 -74.912003 L 22.525 -60.911999 L 22.525 -60.911999 L 22.525 -74.912003 Z " stroke="#191919" stroke-width="0.7 px" style="stroke-width:0.7;stroke-miterlimit:4;stroke-dasharray:none;stroke-linecap:square;fill:#727980;fill-opacity:1.0;fill-rule: evenodd"/>
<path id="Pad_f0023"  d="M 22.525 -60.911999 L 22.525 -60.911999 L 8.525 -60.911999 L 8.525 -60.911999 L 22.525 -60.911999 Z " stroke="#191919" stroke-width="0.7 px" style="stroke-width:0.7;stroke-miterlimit:4;stroke-dasharray:none;stroke-linecap:square;fill:#727980;fill-opacity:1.0;fill-rule: evenodd"/>
<path id="Pad_f0024"  d="M 84.724998 -22.811998 L 84.724998 -22.811998 L 84.724998 -36.812 L 84.724998 -36.812 L 84.724998 -22.811998 Z " stroke="#191919" stroke-width="0.7 px" style="stroke-width:0.7;stroke-miterlimit:4;stroke-dasharray:none;stroke-linecap:square;fill:#727980;fill-opacity:1.0;fill-rule: evenodd"/>
<path id="Pad_f0025"  d="M 84.724998 -36.812 L 84.724998 -36.812 L 98.724998 -36.812 L 98.724998 -36.812 L 84.724998 -36.812 Z " stroke="#191919" stroke-width="0.7 px" style="stroke-width:0.7;stroke-miterlimit:4;stroke-dasharray:none;stroke-linecap:square;fill:#727980;fill-opacity:1.0;fill-rule: evenodd"/>
<path id="Pad_f0026"  d="M 98.724998 -36.812 L 98.724998 -36.812 L 98.724998 -22.811998 L 98.724998 -22.811998 L 98.724998 -36.812 Z " stroke="#191919" stroke-width="0.7 px" style="stroke-width:0.7;stroke-miterlimit:4;stroke-dasharray:none;stroke-linecap:square;fill:#727980;fill-opacity:1.0;fill-rule: evenodd"/>
<path id="Pad_f0027"  d="M 98.724998 -22.811998 L 98.724998 -22.811998 L 84.724998 -22.811998 L 84.724998 -22.811998 L 98.724998 -22.811998 Z " stroke="#191919" stroke-width="0.7 px" style="stroke-width:0.7;stroke-miterlimit:4;stroke-dasharray:none;stroke-linecap:square;fill:#727980;fill-opacity:1.0;fill-rule: evenodd"/>
<path id="Pad_f0028"  d="M 8.525 -22.811998 L 8.525 -22.811998 L 8.525 -36.812 L 8.525 -36.812 L 8.525 -22.811998 Z " stroke="#191919" stroke-width="0.7 px" style="stroke-width:0.7;stroke-miterlimit:4;stroke-dasharray:none;stroke-linecap:square;fill:#727980;fill-opacity:1.0;fill-rule: evenodd"/>
<path id="Pad_f0029"  d="M 8.525 -36.812 L 8.525 -36.812 L 22.525 -36.812 L 22.525 -36.812 L 8.525 -36.812 Z " stroke="#191919" stroke-width="0.7 px" style="stroke-width:0.7;stroke-miterlimit:4;stroke-dasharray:none;stroke-linecap:square;fill:#727980;fill-opacity:1.0;fill-rule: evenodd"/>
<path id="Pad_f0030"  d="M 22.525 -36.812 L 22.525 -36.812 L 22.525 -22.811998 L 22.525 -22.811998 L 22.525 -36.812 Z " stroke="#191919" stroke-width="0.7 px" style="stroke-width:0.7;stroke-miterlimit:4;stroke-dasharray:none;stroke-linecap:square;fill:#727980;fill-opacity:1.0;fill-rule: evenodd"/>
<path id="Pad_f0031"  d="M 22.525 -22.811998 L 22.525 -22.811998 L 8.525 -22.811998 L 8.525 -22.811998 L 22.525 -22.811998 Z " stroke="#191919" stroke-width="0.7 px" style="stroke-width:0.7;stroke-miterlimit:4;stroke-dasharray:none;stroke-linecap:square;fill:#727980;fill-opacity:1.0;fill-rule: evenodd"/>
<path id="Pad_f0032"  d="M 27.575001 -13.287 L 27.575001 -13.287 L 27.575001 -27.287001 L 27.575001 -27.287001 L 27.575001 -13.287 Z " stroke="#191919" stroke-width="0.7 px" style="stroke-width:0.7;stroke-miterlimit:4;stroke-dasharray:none;stroke-linecap:square;fill:#727980;fill-opacity:1.0;fill-rule: evenodd"/>
<path id="Pad_f0033"  d="M 27.575001 -27.287001 L 27.575001 -27.287001 L 41.575001 -27.287001 L 41.575001 -27.287001 L 27.575001 -27.287001 Z " stroke="#191919" stroke-width="0.7 px" style="stroke-width:0.7;stroke-miterlimit:4;stroke-dasharray:none;stroke-linecap:square;fill:#727980;fill-opacity:1.0;fill-rule: evenodd"/>
<path id="Pad_f0034"  d="M 41.575001 -27.287001 L 41.575001 -27.287001 L 41.575001 -13.287 L 41.575001 -13.287 L 41.575001 -27.287001 Z " stroke="#191919" stroke-width="0.7 px" style="stroke-width:0.7;stroke-miterlimit:4;stroke-dasharray:none;stroke-linecap:square;fill:#727980;fill-opacity:1.0;fill-rule: evenodd"/>
<path id="Pad_f0035"  d="M 41.575001 -13.287 L 41.575001 -13.287 L 27.575001 -13.287 L 27.575001 -13.287 L 41.575001 -13.287 Z " stroke="#191919" stroke-width="0.7 px" style="stroke-width:0.7;stroke-miterlimit:4;stroke-dasharray:none;stroke-linecap:square;fill:#727980;fill-opacity:1.0;fill-rule: evenodd"/>
<path id="Pad_f0036"  d="M 27.575001 -51.387001 L 27.575001 -51.387001 L 27.575001 -65.387001 L 27.575001 -65.387001 L 27.575001 -51.387001 Z " stroke="#191919" stroke-width="0.7 px" style="stroke-width:0.7;stroke-miterlimit:4;stroke-dasharray:none;stroke-linecap:square;fill:#727980;fill-opacity:1.0;fill-rule: evenodd"/>
<path id="Pad_f0037"  d="M 27.575001 -65.387001 L 27.575001 -65.387001 L 41.575001 -65.387001 L 41.575001 -65.387001 L 27.575001 -65.387001 Z " stroke="#191919" stroke-width="0.7 px" style="stroke-width:0.7;stroke-miterlimit:4;stroke-dasharray:none;stroke-linecap:square;fill:#727980;fill-opacity:1.0;fill-rule: evenodd"/>
<path id="Pad_f0038"  d="M 41.575001 -65.387001 L 41.575001 -65.387001 L 41.575001 -51.387001 L 41.575001 -51.387001 L 41.575001 -65.387001 Z " stroke="#191919" stroke-width="0.7 px" style="stroke-width:0.7;stroke-miterlimit:4;stroke-dasharray:none;stroke-linecap:square;fill:#727980;fill-opacity:1.0;fill-rule: evenodd"/>
<path id="Pad_f0039"  d="M 41.575001 -51.387001 L 41.575001 -51.387001 L 27.575001 -51.387001 L 27.575001 -51.387001 L 41.575001 -51.387001 Z " stroke="#191919" stroke-width="0.7 px" style="stroke-width:0.7;stroke-miterlimit:4;stroke-dasharray:none;stroke-linecap:square;fill:#727980;fill-opacity:1.0;fill-rule: evenodd"/>
<path id="Pad_f0040"  d="M 27.575001 -32.337002 L 27.575001 -32.337002 L 27.575001 -46.337002 L 27.575001 -46.337002 L 27.575001 -32.337002 Z " stroke="#191919" stroke-width="0.7 px" style="stroke-width:0.7;stroke-miterlimit:4;stroke-dasharray:none;stroke-linecap:square;fill:#727980;fill-opacity:1.0;fill-rule: evenodd"/>
<path id="Pad_f0041"  d="M 27.575001 -46.337002 L 27.575001 -46.337002 L 41.575001 -46.337002 L 41.575001 -46.337002 L 27.575001 -46.337002 Z " stroke="#191919" stroke-width="0.7 px" style="stroke-width:0.7;stroke-miterlimit:4;stroke-dasharray:none;stroke-linecap:square;fill:#727980;fill-opacity:1.0;fill-rule: evenodd"/>
<path id="Pad_f0042"  d="M 41.575001 -46.337002 L 41.575001 -46.337002 L 41.575001 -32.337002 L 41.575001 -32.337002 L 41.575001 -46.337002 Z " stroke="#191919" stroke-width="0.7 px" style="stroke-width:0.7;stroke-miterlimit:4;stroke-dasharray:none;stroke-linecap:square;fill:#727980;fill-opacity:1.0;fill-rule: evenodd"/>
<path id="Pad_f0043"  d="M 41.575001 -32.337002 L 41.575001 -32.337002 L 27.575001 -32.337002 L 27.575001 -32.337002 L 41.575001 -32.337002 Z " stroke="#191919" stroke-width="0.7 px" style="stroke-width:0.7;stroke-miterlimit:4;stroke-dasharray:none;stroke-linecap:square;fill:#727980;fill-opacity:1.0;fill-rule: evenodd"/>
<path id="Pad_f0044"  d="M 8.525 -41.862 L 8.525 -41.862 L 8.525 -55.862 L 8.525 -55.862 L 8.525 -41.862 Z " stroke="#191919" stroke-width="0.7 px" style="stroke-width:0.7;stroke-miterlimit:4;stroke-dasharray:none;stroke-linecap:square;fill:#727980;fill-opacity:1.0;fill-rule: evenodd"/>
<path id="Pad_f0045"  d="M 8.525 -55.862 L 8.525 -55.862 L 22.525 -55.862 L 22.525 -55.862 L 8.525 -55.862 Z " stroke="#191919" stroke-width="0.7 px" style="stroke-width:0.7;stroke-miterlimit:4;stroke-dasharray:none;stroke-linecap:square;fill:#727980;fill-opacity:1.0;fill-rule: evenodd"/>
<path id="Pad_f0046"  d="M 22.525 -55.862 L 22.525 -55.862 L 22.525 -41.862 L 22.525 -41.862 L 22.525 -55.862 Z " stroke="#191919" stroke-width="0.7 px" style="stroke-width:0.7;stroke-miterlimit:4;stroke-dasharray:none;stroke-linecap:square;fill:#727980;fill-opacity:1.0;fill-rule: evenodd"/>
<path id="Pad_f0047"  d="M 22.525 -41.862 L 22.525 -41.862 L 8.525 -41.862 L 8.525 -41.862 L 22.525 -41.862 Z " stroke="#191919" stroke-width="0.7 px" style="stroke-width:0.7;stroke-miterlimit:4;stroke-dasharray:none;stroke-linecap:square;fill:#727980;fill-opacity:1.0;fill-rule: evenodd"/>
<path id="Pad_f0048"  d="M 65.675003 -56.149998 L 65.675003 -56.149998 L 65.675003 -70.149994 L 65.675003 -70.149994 L 65.675003 -56.149998 Z " stroke="#191919" stroke-width="0.7 px" style="stroke-width:0.7;stroke-miterlimit:4;stroke-dasharray:none;stroke-linecap:square;fill:#727980;fill-opacity:1.0;fill-rule: evenodd"/>
<path id="Pad_f0049"  d="M 65.675003 -70.149994 L 65.675003 -70.149994 L 79.675003 -70.149994 L 79.675003 -70.149994 L 65.675003 -70.149994 Z " stroke="#191919" stroke-width="0.7 px" style="stroke-width:0.7;stroke-miterlimit:4;stroke-dasharray:none;stroke-linecap:square;fill:#727980;fill-opacity:1.0;fill-rule: evenodd"/>
<path id="Pad_f0050"  d="M 79.675003 -70.149994 L 79.675003 -70.149994 L 79.675003 -56.149998 L 79.675003 -56.149998 L 79.675003 -70.149994 Z " stroke="#191919" stroke-width="0.7 px" style="stroke-width:0.7;stroke-miterlimit:4;stroke-dasharray:none;stroke-linecap:square;fill:#727980;fill-opacity:1.0;fill-rule: evenodd"/>
<path id="Pad_f0051"  d="M 79.675003 -56.149998 L 79.675003 -56.149998 L 65.675003 -56.149998 L 65.675003 -56.149998 L 79.675003 -56.149998 Z " stroke="#191919" stroke-width="0.7 px" style="stroke-width:0.7;stroke-miterlimit:4;stroke-dasharray:none;stroke-linecap:square;fill:#727980;fill-opacity:1.0;fill-rule: evenodd"/>
<path id="Pad_f0052"  d="M 46.625 -27.575001 L 46.625 -27.575001 L 46.625 -41.575001 L 46.625 -41.575001 L 46.625 -27.575001 Z " stroke="#191919" stroke-width="0.7 px" style="stroke-width:0.7;stroke-miterlimit:4;stroke-dasharray:none;stroke-linecap:square;fill:#727980;fill-opacity:1.0;fill-rule: evenodd"/>
<path id="Pad_f0053"  d="M 46.625 -41.575001 L 46.625 -41.575001 L 60.624996 -41.575001 L 60.624996 -41.575001 L 46.625 -41.575001 Z " stroke="#191919" stroke-width="0.7 px" style="stroke-width:0.7;stroke-miterlimit:4;stroke-dasharray:none;stroke-linecap:square;fill:#727980;fill-opacity:1.0;fill-rule: evenodd"/>
<path id="Pad_f0054"  d="M 60.624996 -41.575001 L 60.624996 -41.575001 L 60.624996 -27.575001 L 60.624996 -27.575001 L 60.624996 -41.575001 Z " stroke="#191919" stroke-width="0.7 px" style="stroke-width:0.7;stroke-miterlimit:4;stroke-dasharray:none;stroke-linecap:square;fill:#727980;fill-opacity:1.0;fill-rule: evenodd"/>
<path id="Pad_f0055"  d="M 60.624996 -27.575001 L 60.624996 -27.575001 L 46.625 -27.575001 L 46.625 -27.575001 L 60.624996 -27.575001 Z " stroke="#191919" stroke-width="0.7 px" style="stroke-width:0.7;stroke-miterlimit:4;stroke-dasharray:none;stroke-linecap:square;fill:#727980;fill-opacity:1.0;fill-rule: evenodd"/>
<path id="Pad_f0056"  d="M 84.724998 -41.862 L 84.724998 -41.862 L 84.724998 -55.861996 L 84.724998 -55.861996 L 84.724998 -41.862 Z " stroke="#191919" stroke-width="0.7 px" style="stroke-width:0.7;stroke-miterlimit:4;stroke-dasharray:none;stroke-linecap:square;fill:#727980;fill-opacity:1.0;fill-rule: evenodd"/>
<path id="Pad_f0057"  d="M 84.724998 -55.861996 L 84.724998 -55.861996 L 98.724998 -55.861996 L 98.724998 -55.861996 L 84.724998 -55.861996 Z " stroke="#191919" stroke-width="0.7 px" style="stroke-width:0.7;stroke-miterlimit:4;stroke-dasharray:none;stroke-linecap:square;fill:#727980;fill-opacity:1.0;fill-rule: evenodd"/>
<path id="Pad_f0058"  d="M 98.724998 -55.861996 L 98.724998 -55.861996 L 98.724998 -41.862 L 98.724998 -41.862 L 98.724998 -55.861996 Z " stroke="#191919" stroke-width="0.7 px" style="stroke-width:0.7;stroke-miterlimit:4;stroke-dasharray:none;stroke-linecap:square;fill:#727980;fill-opacity:1.0;fill-rule: evenodd"/>
<path id="Pad_f0059"  d="M 98.724998 -41.862 L 98.724998 -41.862 L 84.724998 -41.862 L 84.724998 -41.862 L 98.724998 -41.862 Z " stroke="#191919" stroke-width="0.7 px" style="stroke-width:0.7;stroke-miterlimit:4;stroke-dasharray:none;stroke-linecap:square;fill:#727980;fill-opacity:1.0;fill-rule: evenodd"/>
<path id="Pad_f0060"  d="M 65.675003 -18.049999 L 65.675003 -18.049999 L 65.675003 -32.049 L 65.675003 -32.049 L 65.675003 -18.049999 Z " stroke="#191919" stroke-width="0.7 px" style="stroke-width:0.7;stroke-miterlimit:4;stroke-dasharray:none;stroke-linecap:square;fill:#727980;fill-opacity:1.0;fill-rule: evenodd"/>
<path id="Pad_f0061"  d="M 65.675003 -32.049 L 65.675003 -32.049 L 79.675003 -32.049 L 79.675003 -32.049 L 65.675003 -32.049 Z " stroke="#191919" stroke-width="0.7 px" style="stroke-width:0.7;stroke-miterlimit:4;stroke-dasharray:none;stroke-linecap:square;fill:#727980;fill-opacity:1.0;fill-rule: evenodd"/>
<path id="Pad_f0062"  d="M 79.675003 -32.049 L 79.675003 -32.049 L 79.675003 -18.049999 L 79.675003 -18.049999 L 79.675003 -32.049 Z " stroke="#191919" stroke-width="0.7 px" style="stroke-width:0.7;stroke-miterlimit:4;stroke-dasharray:none;stroke-linecap:square;fill:#727980;fill-opacity:1.0;fill-rule: evenodd"/>
<path id="Pad_f0063"  d="M 79.675003 -18.049999 L 79.675003 -18.049999 L 65.675003 -18.049999 L 65.675003 -18.049999 L 79.675003 -18.049999 Z " stroke="#191919" stroke-width="0.7 px" style="stroke-width:0.7;stroke-miterlimit:4;stroke-dasharray:none;stroke-linecap:square;fill:#727980;fill-opacity:1.0;fill-rule: evenodd"/>
<path id="Pad_f0064"  d="M 5.0 -78.438004 L 102.250999 -78.438004 L 102.250999 -5.0 L 5.0 -5.0 L 5.0 -78.438004 Z M 46.624992 -46.624889 L 60.625 -46.624889 L 60.625 -60.625 L 46.624992 -60.625 L 46.624992 -46.624889 Z M 84.724991 -60.911995 L 98.725006 -60.911995 L 98.725006 -74.912003 L 84.724991 -74.912003 L 84.724991 -60.911995 Z M 65.674995 -37.099998 L 79.675003 -37.099998 L 79.675003 -51.099998 L 65.674995 -51.099998 L 65.674995 -37.099998 Z M 46.625 -8.525 L 60.625004 -8.525 L 60.625004 -22.525 L 46.625 -22.525 L 46.625 -8.525 Z M 8.525 -60.911999 L 22.525 -60.911999 L 22.525 -74.912003 L 8.525 -74.912003 L 8.525 -60.911999 Z M 84.724998 -22.811998 L 98.724998 -22.811998 L 98.724998 -36.812 L 84.724998 -36.812 L 84.724998 -22.811998 Z M 8.525 -22.811998 L 22.525 -22.811998 L 22.525 -36.812 L 8.525 -36.812 L 8.525 -22.811998 Z M 27.575001 -13.287 L 41.575001 -13.287 L 41.575001 -27.287001 L 27.575001 -27.287001 L 27.575001 -13.287 Z M 27.575001 -51.387001 L 41.575001 -51.387001 L 41.575001 -65.387001 L 27.575001 -65.387001 L 27.575001 -51.387001 Z M 27.575001 -32.337002 L 41.575001 -32.337002 L 41.575001 -46.337002 L 27.575001 -46.337002 L 27.575001 -32.337002 Z M 8.525 -41.862 L 22.525 -41.862 L 22.525 -55.862 L 8.525 -55.862 L 8.525 -41.862 Z M 65.675003 -56.149998 L 79.675003 -56.149998 L 79.675003 -70.149994 L 65.675003 -70.149994 L 65.675003 -56.149998 Z M 46.625 -27.575001 L 60.624996 -27.575001 L 60.624996 -41.575001 L 46.625 -41.575001 L 46.625 -27.575001 Z M 84.724998 -41.862 L 98.724998 -41.862 L 98.724998 -55.861996 L 84.724998 -55.861996 L 84.724998 -41.862 Z M 65.675003 -18.049999 L 79.675003 -18.049999 L 79.675003 -32.049 L 65.675003 -32.049 L 65.675003 -18.049999 Z " stroke="#191919" stroke-width="0.7 px" style="stroke-width:0.7;stroke-miterlimit:4;stroke-dasharray:none;stroke-linecap:square;fill:#727980;fill-opacity:1.0;fill-rule: evenodd"/>
<path id="Pad_f0065"  d="M 5.0 -5.0 L 5.0 -78.438004 L 102.250999 -78.438004 L 102.250999 -5.0 L 5.0 -5.0 Z M 60.625 -60.625 L 46.624992 -60.625 L 46.624992 -46.624889 L 60.625 -46.624889 L 60.625 -60.625 Z M 98.725006 -74.912003 L 84.724991 -74.912003 L 84.724991 -60.911995 L 98.725006 -60.911995 L 98.725006 -74.912003 Z M 79.675003 -51.099998 L 65.674995 -51.099998 L 65.674995 -37.099998 L 79.675003 -37.099998 L 79.675003 -51.099998 Z M 60.625004 -22.525 L 46.625 -22.525 L 46.625 -8.525 L 60.625004 -8.525 L 60.625004 -22.525 Z M 22.525 -74.912003 L 8.525 -74.912003 L 8.525 -60.911999 L 22.525 -60.911999 L 22.525 -74.912003 Z M 98.724998 -36.812 L 84.724998 -36.812 L 84.724998 -22.811998 L 98.724998 -22.811998 L 98.724998 -36.812 Z M 22.525 -36.812 L 8.525 -36.812 L 8.525 -22.811998 L 22.525 -22.811998 L 22.525 -36.812 Z M 41.575001 -27.287001 L 27.575001 -27.287001 L 27.575001 -13.287 L 41.575001 -13.287 L 41.575001 -27.287001 Z M 41.575001 -65.387001 L 27.575001 -65.387001 L 27.575001 -51.387001 L 41.575001 -51.387001 L 41.575001 -65.387001 Z M 41.575001 -46.337002 L 27.575001 -46.337002 L 27.575001 -32.337002 L 41.575001 -32.337002 L 41.575001 -46.337002 Z M 22.525 -55.862 L 8.525 -55.862 L 8.525 -41.862 L 22.525 -41.862 L 22.525 -55.862 Z M 79.675003 -70.149994 L 65.675003 -70.149994 L 65.675003 -56.149998 L 79.675003 -56.149998 L 79.675003 -70.149994 Z M 60.624996 -41.575001 L 46.625 -41.575001 L 46.625 -27.575001 L 60.624996 -27.575001 L 60.624996 -41.575001 Z M 98.724998 -55.861996 L 84.724998 -55.861996 L 84.724998 -41.862 L 98.724998 -41.862 L 98.724998 -55.861996 Z M 79.675003 -32.049 L 65.675003 -32.049 L 65.675003 -18.049999 L 79.675003 -18.049999 L 79.675003 -32.049 Z " stroke="#191919" stroke-width="0.7 px" style="stroke-width:0.7;stroke-miterlimit:4;stroke-dasharray:none;stroke-linecap:square;fill:#727980;fill-opacity:1.0;fill-rule: evenodd"/>
<title>b'Pad'</title>
</g>
</svg>